<svg id="Layer_1" height="512" viewBox="0 0 512 512" width="512" xmlns="http://www.w3.org/2000/svg" data-name="Layer 1"><path d="m379.01 17.54-209.86-.54-.02.02-64.28 66.24-.64 301.7a28.946 28.946 0 0 0 28.85 29.04h245.11a28.953 28.953 0 0 0 28.85-28.92l.77-338.535a28.908 28.908 0 0 0 -28.78-29.005z" fill="#eed0be"/><path d="m375.78 326.95a11.581 11.581 0 0 1 0 12.75l-4.66 7.08a11.571 11.571 0 0 0 -1.89 7.02l.47 8.56a11.587 11.587 0 0 1 -6.34 10.97l-7.57 3.84a11.532 11.532 0 0 0 -5.11 5.11l-3.83 7.59a11.538 11.538 0 0 1 -10.96 6.34l-8.55-.47c-.44-.02-.88-.02-1.31 0a11.522 11.522 0 0 0 -5.69 1.9l-7.07 4.67a11.565 11.565 0 0 1 -12.74 0l-7.06-4.67a11.591 11.591 0 0 0 -5.7-1.9c-.43-.02-.87-.02-1.31 0l-8.55.47a11.562 11.562 0 0 1 -10.96-6.34l-3.82-7.59a11.633 11.633 0 0 0 -5.11-5.11l-7.58-3.84a11.562 11.562 0 0 1 -6.33-10.97l.47-8.56a11.648 11.648 0 0 0 -1.9-7.02l-4.66-7.08a11.619 11.619 0 0 1 0-12.75l4.66-7.08a11.6 11.6 0 0 0 1.9-7.01l-.47-8.56a11.567 11.567 0 0 1 6.33-10.98l7.58-3.83a11.655 11.655 0 0 0 5.11-5.12l3.82-7.59a11.582 11.582 0 0 1 10.96-6.34l8.55.47a11.549 11.549 0 0 0 7.01-1.9l7.06-4.66a11.565 11.565 0 0 1 12.74 0l7.07 4.66a11.5 11.5 0 0 0 7 1.9l8.55-.47a11.573 11.573 0 0 1 10.96 6.34l3.83 7.59a11.554 11.554 0 0 0 5.11 5.12l7.57 3.83a11.592 11.592 0 0 1 6.34 10.98l-.47 8.56a11.523 11.523 0 0 0 1.89 7.01z" fill="#f3e08c"/><path d="m341.84 394.99a11.638 11.638 0 0 1 -5.9 1.22l-8.575-.47c-.44-.02-.913-.02-1.342 0l-.023.28v86.79l-.17.4 16.17 11.79v-99.88z" fill="#ddca7a"/><path d="m306.9 286.1a47.225 47.225 0 1 1 -47.16 47.23 47.2 47.2 0 0 1 47.16-47.23z" fill="#eb6141"/><path d="m326.04 396.02v86.79l-.29.4-18.85-13.85-18.85 13.85-.29-.4v-86.79l.01-.28a11.591 11.591 0 0 1 5.7 1.9l7.06 4.67a11.565 11.565 0 0 0 12.74 0l7.07-4.67a11.522 11.522 0 0 1 5.69-1.9z" fill="#94ce74"/><path d="m288 482.81v-86.79l-.11-.28c-.43-.02-.93-.02-1.37 0l-8.58.47a11.489 11.489 0 0 1 -5.86-1.22l-.08.13v99.88l16.165-11.79z" fill="#ddca7a"/><path d="m310 441h-6a6 6 0 0 1 0-12h6a6 6 0 0 1 0 12z" fill="#80af61"/><g fill="#d1b4a6"><path d="m256.239 126.208h-102.3a6 6 0 0 1 0-12h102.3a6 6 0 0 1 0 12z"/><path d="m358.066 126.208h-64.344a6 6 0 0 1 0-12h64.344a6 6 0 0 1 0 12z"/><path d="m192.541 164.871h-38.607a6 6 0 0 1 0-12h38.607a6 6 0 0 1 0 12z"/><path d="m358.066 164.871h-128.043a6 6 0 0 1 0-12h128.043a6 6 0 0 1 0 12z"/><path d="m216.28 202.887h-62.346a6 6 0 0 1 0-12h62.346a6 6 0 1 1 0 12z"/><path d="m358.066 202.887h-102.952a6 6 0 1 1 0-12h102.952a6 6 0 0 1 0 12z"/><path d="m192.541 241.917h-38.607a6 6 0 0 1 0-12h38.607a6 6 0 0 1 0 12z"/><path d="m358.066 241.917h-128.043a6 6 0 0 1 0-12h128.043a6 6 0 0 1 0 12z"/></g><path d="m310 425h-6a6 6 0 0 1 0-12h6a6 6 0 0 1 0 12z" fill="#80af61"/><path d="m310 457h-6a6 6 0 0 1 0-12h6a6 6 0 0 1 0 12z" fill="#80af61"/><path d="m134.21 384.96.59-332.566-29.95 30.866-.64 301.7a28.946 28.946 0 0 0 28.85 29.04h30a28.946 28.946 0 0 1 -28.85-29.04z" fill="#d1b3a3"/><path d="m289.74 333.33a47.224 47.224 0 0 1 32.16-44.776 47.225 47.225 0 1 0 0 89.542 47.219 47.219 0 0 1 -32.16-44.766z" fill="#ce543c"/><path d="m104.85 83.06 64.28-66.04-.14 47.19a19.237 19.237 0 0 1 -19.29 19.2l-44.85-.15z" fill="#ba8e75"/><path d="m130 307.112a6 6 0 0 0 -6 6v66.616a6 6 0 0 0 12 0v-66.616a6 6 0 0 0 -6-6z" fill="#f4f8fc"/><path d="m130 286.156a6 6 0 0 0 -6 6v3.2a6 6 0 0 0 12 0v-3.2a6 6 0 0 0 -6-6z" fill="#f4f8fc"/><path d="m330.3 326.1-11.7 11.42 2.76 16.13-14.46-7.62-14.46 7.62 2.76-16.13-11.7-11.42 16.17-2.35 7.23-14.67 7.23 14.67z" fill="#94ce74"/></svg>