<svg id="Capa_1" enable-background="new 0 0 512 512" height="512" viewBox="0 0 512 512" width="512" xmlns="http://www.w3.org/2000/svg"><g><g><g><g><g><g><g><circle cx="256" cy="256" fill="#ffce00" r="256"/></g></g></g></g></g></g><path d="m512 256c0-25.843-3.83-50.792-10.952-74.311l-88.668-88.667-58.125 43.943-83.255-83.256-194 292.862 98.314 98.314-3.529 3.015 63.254 63.254c6.913.56 13.904.846 20.961.846 141.385 0 256-114.615 256-256z" fill="#ffa300"/><g><path d="m241 53.709h30v63.75h-30z" fill="#555a66"/></g><g><path d="m256.121 53.709h14.88v63.75h-14.88z" fill="#333940"/></g><g><path d="m99.62 93.022h312.76v226.208h-312.76z" fill="#fff"/></g><g><path d="m256.121 93.022h156.259v226.208h-156.259z" fill="#e9edf5"/></g><g><g><path d="m137.758 127.99h31.964v31.964h-31.964z" fill="#1dd882"/></g><g><path d="m191.766 127.99h162.958v31.964h-162.958z" fill="#bec3d2"/></g><g><path d="m256.121 127.99h98.603v31.964h-98.603z" fill="#9196aa"/></g></g><g><g><path d="m137.758 186.504h31.964v31.964h-31.964z" fill="#ff6c52"/></g><g><path d="m191.766 186.504h96.497v31.964h-96.497z" fill="#bec3d2"/></g><g><path d="m256.121 186.504h32.142v31.964h-32.142z" fill="#9196aa"/></g></g><g><g><path d="m137.758 245.018h31.964v31.964h-31.964z" fill="#ff6c52"/></g><g><path d="m191.766 245.018h139.501v31.964h-139.501z" fill="#bec3d2"/></g><g><path d="m256.121 245.018h75.146v31.964h-75.146z" fill="#9196aa"/></g></g><path d="m311.342 377.858h-94.1l10.284-48.687-29.352-6.2-26.389 124.929 29.353 6.2 9.767-46.242h100.437z" fill="#555a66"/><path d="m340.215 447.9-26.389-124.929-29.352 6.2 10.284 48.687h-38.637v30h44.974l9.767 46.242z" fill="#333940"/><g><path d="m77 305.571h358v41h-358z" fill="#414952"/></g><g><path d="m256.121 305.571h178.88v41h-178.88z" fill="#23272b"/></g></g></svg>